<mxfile host="app.diagrams.net" modified="2023-07-13T01:21:41.783Z" agent="Mozilla/5.0 (Windows NT 10.0; Win64; x64) AppleWebKit/537.36 (KHTML, like Gecko) Chrome/114.0.0.0 Safari/537.36" etag="zcsUDb_aNnKW0G2oEhQS" version="21.6.2" type="device">
  <diagram name="PÃ¡gina-1" id="5xZGwoBQXH4ZTYTrgQlR">
    <mxGraphModel dx="1434" dy="1925" grid="1" gridSize="10" guides="1" tooltips="1" connect="1" arrows="1" fold="1" page="1" pageScale="1" pageWidth="827" pageHeight="1169" math="0" shadow="0">
      <root>
        <mxCell id="0" />
        <mxCell id="1" parent="0" />
        <mxCell id="EeH7EwzgdKEc6dWmX7hu-1" value="" style="strokeWidth=1;shadow=0;dashed=0;align=center;html=1;shape=mxgraph.mockup.containers.browserWindow;rSize=0;strokeColor=#666666;strokeColor2=#008cff;strokeColor3=#c4c4c4;mainText=,;recursiveResize=0;movable=1;resizable=1;rotatable=1;deletable=1;editable=1;locked=0;connectable=1;" parent="1" vertex="1">
          <mxGeometry y="-200" width="810" height="830" as="geometry" />
        </mxCell>
        <mxCell id="EeH7EwzgdKEc6dWmX7hu-2" value="Page 1" style="strokeWidth=1;shadow=0;dashed=0;align=center;html=1;shape=mxgraph.mockup.containers.anchor;fontSize=17;fontColor=#666666;align=left;whiteSpace=wrap;" parent="EeH7EwzgdKEc6dWmX7hu-1" vertex="1">
          <mxGeometry x="60" y="12" width="110" height="26" as="geometry" />
        </mxCell>
        <mxCell id="EeH7EwzgdKEc6dWmX7hu-3" value="https://www.draw.io" style="strokeWidth=1;shadow=0;dashed=0;align=center;html=1;shape=mxgraph.mockup.containers.anchor;rSize=0;fontSize=17;fontColor=#666666;align=left;" parent="EeH7EwzgdKEc6dWmX7hu-1" vertex="1">
          <mxGeometry x="130" y="60" width="250" height="26" as="geometry" />
        </mxCell>
        <mxCell id="EeH7EwzgdKEc6dWmX7hu-6" value="FOOTER" style="rounded=0;whiteSpace=wrap;html=1;strokeColor=#ae1919;strokeWidth=5;fontSize=23;" parent="EeH7EwzgdKEc6dWmX7hu-1" vertex="1">
          <mxGeometry x="15" y="490" width="780" height="60" as="geometry" />
        </mxCell>
        <mxCell id="EeH7EwzgdKEc6dWmX7hu-4" value="HEADER" style="rounded=0;whiteSpace=wrap;html=1;strokeColor=#ae1919;strokeWidth=5;fontSize=23;" parent="EeH7EwzgdKEc6dWmX7hu-1" vertex="1">
          <mxGeometry x="15" y="140" width="780" height="60" as="geometry" />
        </mxCell>
        <mxCell id="EeH7EwzgdKEc6dWmX7hu-5" value="SECTION" style="rounded=0;whiteSpace=wrap;html=1;strokeColor=#CC6600;strokeWidth=5;fontSize=23;" parent="EeH7EwzgdKEc6dWmX7hu-1" vertex="1">
          <mxGeometry x="15" y="220" width="780" height="250" as="geometry" />
        </mxCell>
        <mxCell id="EeH7EwzgdKEc6dWmX7hu-7" value="ARTICLE" style="rounded=0;whiteSpace=wrap;html=1;strokeColor=#330066;strokeWidth=5;fontSize=23;" parent="EeH7EwzgdKEc6dWmX7hu-1" vertex="1">
          <mxGeometry x="30" y="250" width="480" height="200" as="geometry" />
        </mxCell>
        <mxCell id="EeH7EwzgdKEc6dWmX7hu-9" value="ASIDE" style="rounded=0;whiteSpace=wrap;html=1;strokeColor=#00CCCC;strokeWidth=5;fontSize=23;" parent="EeH7EwzgdKEc6dWmX7hu-1" vertex="1">
          <mxGeometry x="530" y="250" width="250" height="200" as="geometry" />
        </mxCell>
        <mxCell id="i5nm8C0TdVa-hS7QHE1q-1" value="500px" style="text;html=1;strokeColor=none;fillColor=none;align=center;verticalAlign=middle;whiteSpace=wrap;rounded=0;" vertex="1" parent="EeH7EwzgdKEc6dWmX7hu-1">
          <mxGeometry x="250" y="270" width="60" height="60" as="geometry" />
        </mxCell>
        <mxCell id="i5nm8C0TdVa-hS7QHE1q-2" value="300px" style="text;html=1;strokeColor=none;fillColor=none;align=center;verticalAlign=middle;whiteSpace=wrap;rounded=0;" vertex="1" parent="EeH7EwzgdKEc6dWmX7hu-1">
          <mxGeometry x="630" y="270" width="60" height="60" as="geometry" />
        </mxCell>
        <mxCell id="i5nm8C0TdVa-hS7QHE1q-3" value="" style="strokeWidth=1;shadow=0;dashed=0;align=center;html=1;shape=mxgraph.mockup.containers.browserWindow;rSize=0;strokeColor=#666666;strokeColor2=#008cff;strokeColor3=#c4c4c4;mainText=,;recursiveResize=0;movable=1;resizable=1;rotatable=1;deletable=1;editable=1;locked=0;connectable=1;" vertex="1" parent="EeH7EwzgdKEc6dWmX7hu-1">
          <mxGeometry width="810" height="830" as="geometry" />
        </mxCell>
        <mxCell id="i5nm8C0TdVa-hS7QHE1q-4" value="Page 1" style="strokeWidth=1;shadow=0;dashed=0;align=center;html=1;shape=mxgraph.mockup.containers.anchor;fontSize=17;fontColor=#666666;align=left;whiteSpace=wrap;" vertex="1" parent="i5nm8C0TdVa-hS7QHE1q-3">
          <mxGeometry x="60" y="12" width="110" height="26" as="geometry" />
        </mxCell>
        <mxCell id="i5nm8C0TdVa-hS7QHE1q-5" value="https://www.draw.io" style="strokeWidth=1;shadow=0;dashed=0;align=center;html=1;shape=mxgraph.mockup.containers.anchor;rSize=0;fontSize=17;fontColor=#666666;align=left;" vertex="1" parent="i5nm8C0TdVa-hS7QHE1q-3">
          <mxGeometry x="130" y="60" width="250" height="26" as="geometry" />
        </mxCell>
        <mxCell id="i5nm8C0TdVa-hS7QHE1q-6" value="FOOTER" style="rounded=0;whiteSpace=wrap;html=1;strokeColor=#ae1919;strokeWidth=5;fontSize=23;" vertex="1" parent="i5nm8C0TdVa-hS7QHE1q-3">
          <mxGeometry x="15" y="490" width="780" height="60" as="geometry" />
        </mxCell>
        <mxCell id="i5nm8C0TdVa-hS7QHE1q-7" value="HEADER" style="rounded=0;whiteSpace=wrap;html=1;strokeColor=#ae1919;strokeWidth=5;fontSize=23;" vertex="1" parent="i5nm8C0TdVa-hS7QHE1q-3">
          <mxGeometry x="15" y="140" width="780" height="60" as="geometry" />
        </mxCell>
        <mxCell id="i5nm8C0TdVa-hS7QHE1q-8" value="SECTION" style="rounded=0;whiteSpace=wrap;html=1;strokeColor=#CC6600;strokeWidth=5;fontSize=23;" vertex="1" parent="i5nm8C0TdVa-hS7QHE1q-3">
          <mxGeometry x="15" y="240" width="780" height="220" as="geometry" />
        </mxCell>
        <mxCell id="i5nm8C0TdVa-hS7QHE1q-9" value="ARTICLE" style="rounded=0;whiteSpace=wrap;html=1;strokeColor=#330066;strokeWidth=5;fontSize=23;" vertex="1" parent="i5nm8C0TdVa-hS7QHE1q-3">
          <mxGeometry x="20" y="250" width="480" height="200" as="geometry" />
        </mxCell>
        <mxCell id="i5nm8C0TdVa-hS7QHE1q-10" value="ASIDE" style="rounded=0;whiteSpace=wrap;html=1;strokeColor=#00CCCC;strokeWidth=5;fontSize=23;" vertex="1" parent="i5nm8C0TdVa-hS7QHE1q-3">
          <mxGeometry x="510" y="250" width="280" height="200" as="geometry" />
        </mxCell>
        <mxCell id="i5nm8C0TdVa-hS7QHE1q-11" value="500px" style="text;html=1;strokeColor=none;fillColor=none;align=center;verticalAlign=middle;whiteSpace=wrap;rounded=0;" vertex="1" parent="i5nm8C0TdVa-hS7QHE1q-3">
          <mxGeometry x="250" y="270" width="60" height="60" as="geometry" />
        </mxCell>
        <mxCell id="i5nm8C0TdVa-hS7QHE1q-12" value="300px" style="text;html=1;strokeColor=none;fillColor=none;align=center;verticalAlign=middle;whiteSpace=wrap;rounded=0;" vertex="1" parent="i5nm8C0TdVa-hS7QHE1q-3">
          <mxGeometry x="630" y="270" width="60" height="60" as="geometry" />
        </mxCell>
        <mxCell id="i5nm8C0TdVa-hS7QHE1q-13" value="200px" style="text;html=1;strokeColor=none;fillColor=none;align=center;verticalAlign=middle;whiteSpace=wrap;rounded=0;" vertex="1" parent="i5nm8C0TdVa-hS7QHE1q-3">
          <mxGeometry x="455" y="315" width="60" height="60" as="geometry" />
        </mxCell>
        <mxCell id="i5nm8C0TdVa-hS7QHE1q-14" value="200px" style="text;html=1;strokeColor=none;fillColor=none;align=center;verticalAlign=middle;whiteSpace=wrap;rounded=0;" vertex="1" parent="i5nm8C0TdVa-hS7QHE1q-3">
          <mxGeometry x="720" y="320" width="60" height="60" as="geometry" />
        </mxCell>
      </root>
    </mxGraphModel>
  </diagram>
</mxfile>
